<?xml version="1.0" encoding="utf-8"?>
<!-- Generator: Adobe Illustrator 25.4.1, SVG Export Plug-In . SVG Version: 6.00 Build 0)  -->
<svg version="1.1" id="Layer_1" xmlns="http://www.w3.org/2000/svg" xmlns:xlink="http://www.w3.org/1999/xlink" x="0px" y="0px"
	 viewBox="0 0 1920 1080" style="enable-background:new 0 0 1920 1080;" xml:space="preserve">
<style type="text/css">
	.st0{display:none;fill:#FFFFFF;}
</style>
<g>
	<g>
		<path class="st0" d="M552.4,478.1c0-80.3,0-160.6,0-240.9c118.8,0,237.6,0,356.5,0c0,80.3,0,160.6,0,240.9
			C790,478.1,671.2,478.1,552.4,478.1z M855.8,395c-30.2-52.4-60.3-104.5-90.4-156.6c-17.3,10.2-34.6,20.3-51.9,30.5
			c0.3,0.5,0.5,0.9,0.7,1.2c23.6,41.2,47.2,82.4,70.8,123.6c0.6,1,1.2,1.3,2.3,1.3c22.3,0,44.5,0,66.8,0
			C854.5,395,854.9,395,855.8,395z M708.9,409.8c0-5,0-9.8,0-14.8c18.3,0,36.5,0,55,0c-19.4-33.9-38.7-67.6-58-101.3
			c-17.7,10-35.1,19.9-52.7,29.8c0.3,0.6,0.6,1.1,0.9,1.5c11.8,20.8,23.5,41.8,35.6,62.4c3,5.2,4.9,10.3,4.2,16.3c-0.2,2,0,4,0,6.1
			C698.9,409.8,703.8,409.8,708.9,409.8z M687,476c0-26.9,0-53.6,0-80.5c-5,0-9.9,0-15,0c0,8.4,0,16.7,0,25.1
			c-13.2-8.6-31-6.2-40.9,4.6c-9.3,10.2-10.7,26.2-3,38.1c3.8,5.8,8.9,10,15.4,12.2c9.9,3.4,19.3,2.1,28.6-3.2c0,1.3,0,2.4,0,3.6
			C677.1,476,682,476,687,476z M763.9,420.6c-12.8-9.2-31.7-5.4-41,5.2c-9.2,10.4-10.6,25.6-3,37.2c3.9,6,9.2,10.3,16,12.6
			c9.7,3.3,19,2.4,28-3.1c0,1.3,0,2.3,0,3.4c5.1,0,10,0,14.8,0c0-26.9,0-53.6,0-80.4c-5,0-9.9,0-14.9,0
			C763.9,404,763.9,412.2,763.9,420.6z M602.8,420.7c-16.8-10.4-34-3.8-42,6c-8.8,10.9-9.4,26.1-1.2,37.6c4.1,5.8,9.6,9.9,16.4,11.8
			c9.3,2.7,18.2,1.3,26.7-3.6c0,1.3,0,2.4,0,3.4c5.1,0,10,0,14.9,0c0-20,0-39.9,0-59.8c-5,0-9.9,0-14.9,0
			C602.8,417.7,602.8,419.1,602.8,420.7z M833.1,420.7c-14.9-9.6-33.1-5-41.8,5.5c-8.7,10.5-9.6,26.2-1.9,37.7
			c3.9,5.7,9,9.8,15.6,11.9c9.7,3.1,19,1.8,28-3.4c0,1.3,0,2.4,0,3.5c4.8,0,9.5,0,14.2,0c0-20,0-39.9,0-59.8c-4.8,0-9.4,0-14.2,0
			C833.1,417.7,833.1,419.1,833.1,420.7z M592.2,377.3c3.1,5.6,6.1,10.9,9,16.4c0.6,1,1.2,1.3,2.3,1.3c22.3,0,44.5,0,66.8,0
			c0.5,0,0.9,0,1.7-0.1c-9.3-16-18.6-31.9-27.8-47.8C626.8,357.2,609.6,367.2,592.2,377.3z M853.4,456.8c0.9,9.1,5.7,15.1,14,18.4
			c5.9,2.3,12.2,2.6,18.4,2c4.9-0.5,9.5-1.6,13.7-4.3c7.8-5,9.3-14.5,7.5-20.4c-1.8-5.8-6.1-9.3-11.6-11c-4.8-1.5-9.8-2-14.8-3.1
			c-2.8-0.6-5.7-1.4-8.3-2.5c-2.2-0.9-2.8-2.9-2-4.9c0.8-2,2.5-3.2,4.5-3.5c2.9-0.3,5.9-0.6,8.8-0.3c4.2,0.5,6.1,2.7,6.6,6.9
			c0,0.3,0.1,0.6,0.2,0.8c4.9,0,9.8,0,14.8,0c0-0.7-0.1-1.2-0.2-1.8c-1.1-7.1-5-12.1-11.5-15c-9-3.9-18.3-4-27.4-0.2
			c-6.6,2.8-10.7,7.9-11.3,15.2c-0.6,6.4,2.5,14.6,10.5,16.8c5.4,1.5,11,2.4,16.5,3.7c2.3,0.5,4.7,0.9,6.8,1.8
			c3.4,1.5,4,4.8,1.4,7.4c-1.1,1.1-2.5,2-3.9,2.6c-2.8,1.2-5.7,1.1-8.6,0.5c-4.7-1-8.1-3.8-8.4-9c0-0.1-0.1-0.2-0.2-0.4
			C863.9,456.8,858.8,456.8,853.4,456.8z M694,415.3c0,20.1,0,40.1,0,60.2c5,0,10,0,15,0c0-20.1,0-40.2,0-60.2
			C703.9,415.3,699,415.3,694,415.3z M905.4,402.8c0-4.2-3.2-7.4-7.4-7.4c-4,0-7.5,3.5-7.6,7.5c0,4,3.5,7.5,7.5,7.5
			C902.2,410.3,905.4,407.1,905.4,402.8z"/>
		<path d="M855.8,395c-0.8,0-1.3,0-1.7,0c-22.3,0-44.5,0-66.8,0c-1.1,0-1.7-0.3-2.3-1.3c-23.6-41.2-47.2-82.4-70.8-123.6
			c-0.2-0.4-0.4-0.8-0.7-1.2c17.3-10.2,34.6-20.3,51.9-30.5C795.5,290.5,825.5,342.6,855.8,395z"/>
		<path d="M708.9,409.8c-5.1,0-10,0-15,0c0-2.1-0.2-4.1,0-6.1c0.7-6-1.2-11.1-4.2-16.3c-12.1-20.7-23.8-41.6-35.6-62.4
			c-0.3-0.5-0.5-0.9-0.9-1.5c17.5-9.9,35-19.8,52.7-29.8c19.3,33.8,38.6,67.4,58,101.3c-18.5,0-36.7,0-55,0
			C708.9,399.9,708.9,404.8,708.9,409.8z"/>
		<path d="M687,476c-5,0-9.9,0-14.9,0c0-1.1,0-2.2,0-3.6c-9.2,5.3-18.7,6.6-28.6,3.2c-6.5-2.2-11.7-6.4-15.4-12.2
			c-7.7-11.9-6.3-27.9,3-38.1c9.9-10.9,27.8-13.3,40.9-4.6c0-8.4,0-16.7,0-25.1c5.1,0,10,0,15,0C687,422.4,687,449.1,687,476z
			 M637.4,446.1c-0.2,9.2,7.4,17.2,16.6,17.4c9.4,0.2,17.8-7.5,18-16.6c0.2-9.3-7.7-17.6-16.8-17.9
			C645.5,428.8,637.6,436.4,637.4,446.1z"/>
		<path d="M763.9,420.6c0-8.4,0-16.7,0-25c5.1,0,9.9,0,14.9,0c0,26.7,0,53.5,0,80.4c-4.9,0-9.8,0-14.8,0c0-1.1,0-2.1,0-3.4
			c-9,5.5-18.4,6.3-28,3.1c-6.8-2.3-12.1-6.6-16-12.6c-7.6-11.7-6.3-26.8,3-37.2C732.2,415.3,751.1,411.5,763.9,420.6z M746.6,429.1
			c-9.2,0-17.3,8.1-17.4,17.2c0,9.3,8,17.3,17.3,17.3c9.5,0,17.2-7.6,17.3-17C764,437,756.2,429.1,746.6,429.1z"/>
		<path d="M602.8,420.7c0-1.6,0-3,0-4.5c5,0,9.9,0,14.9,0c0,19.9,0,39.8,0,59.8c-4.9,0-9.8,0-14.9,0c0-1.1,0-2.2,0-3.4
			c-8.6,5-17.5,6.3-26.7,3.6c-6.8-2-12.3-6-16.4-11.8c-8.2-11.5-7.6-26.8,1.2-37.6C568.8,416.9,586,410.4,602.8,420.7z M585.5,429.1
			c-9.1,0-17.4,8.1-17.4,17.1c0,9.2,8,17.3,17.1,17.4c9.7,0.1,17.5-7.6,17.5-17.1C602.7,436.9,595,429.1,585.5,429.1z"/>
		<path d="M833.1,420.7c0-1.6,0-3.1,0-4.5c4.8,0,9.4,0,14.2,0c0,19.9,0,39.8,0,59.8c-4.7,0-9.3,0-14.2,0c0-1.1,0-2.2,0-3.5
			c-9,5.2-18.3,6.5-28,3.4c-6.6-2.1-11.8-6.2-15.6-11.9c-7.8-11.5-6.8-27.3,1.9-37.7C800.1,415.8,818.2,411.1,833.1,420.7z
			 M815.5,463.6c9.3,0.1,17.4-7.8,17.6-17.1c0.1-9-8.1-17.3-17.2-17.4c-9.5-0.1-17.4,7.6-17.5,17.1
			C798.4,455.7,806,463.5,815.5,463.6z"/>
		<path d="M592.2,377.3c17.3-10.1,34.6-20.1,52-30.2c9.3,15.9,18.5,31.7,27.8,47.8c-0.7,0-1.2,0.1-1.7,0.1c-22.3,0-44.5,0-66.8,0
			c-1.1,0-1.8-0.3-2.3-1.3C598.3,388.3,595.3,382.9,592.2,377.3z"/>
		<path d="M853.4,456.8c5.3,0,10.5,0,15.6,0c0.1,0.1,0.2,0.2,0.2,0.4c0.3,5.1,3.7,8,8.4,9c2.9,0.6,5.8,0.7,8.6-0.5
			c1.4-0.6,2.8-1.5,3.9-2.6c2.6-2.7,2.1-6-1.4-7.4c-2.1-0.9-4.5-1.3-6.8-1.8c-5.5-1.2-11.1-2.2-16.5-3.7c-8-2.3-11.1-10.4-10.5-16.8
			c0.7-7.4,4.7-12.5,11.3-15.2c9.1-3.8,18.3-3.8,27.4,0.2c6.5,2.8,10.4,7.9,11.5,15c0.1,0.6,0.1,1.1,0.2,1.8c-5,0-9.9,0-14.8,0
			c-0.1-0.3-0.2-0.5-0.2-0.8c-0.5-4.2-2.4-6.5-6.6-6.9c-2.9-0.3-5.9-0.1-8.8,0.3c-2,0.2-3.7,1.4-4.5,3.5c-0.8,2-0.2,4,2,4.9
			c2.7,1.1,5.5,1.8,8.3,2.5c4.9,1.1,10,1.7,14.8,3.1c5.5,1.7,9.8,5.2,11.6,11c1.8,5.9,0.3,15.5-7.5,20.4c-4.2,2.7-8.9,3.8-13.7,4.3
			c-6.2,0.6-12.5,0.4-18.4-2C859.1,471.9,854.3,465.9,853.4,456.8z"/>
		<path d="M694,415.3c5,0,9.9,0,15,0c0,20,0,40.1,0,60.2c-5,0-10,0-15,0C694,455.4,694,435.4,694,415.3z"/>
		<path d="M905.4,402.8c0,4.3-3.2,7.5-7.5,7.5c-4,0-7.5-3.5-7.5-7.5c0-3.9,3.6-7.5,7.6-7.5C902.2,395.4,905.4,398.6,905.4,402.8z
			 M903.9,402.8c0-3.7-2.5-6.4-5.9-6.4c-3.6,0-6.1,2.6-6,6.4c0,3.7,2.5,6.4,5.9,6.4C901.4,409.3,903.9,406.6,903.9,402.8z"/>
		<path class="st0" d="M637.4,446.1c0.2-9.7,8.2-17.3,17.8-17.1c9.2,0.2,17,8.6,16.8,17.9c-0.2,9.1-8.6,16.9-18,16.6
			C644.8,463.4,637.1,455.4,637.4,446.1z"/>
		<path class="st0" d="M746.6,429.1c9.5,0,17.3,7.9,17.2,17.5c-0.1,9.5-7.8,17-17.3,17c-9.3,0-17.3-8-17.3-17.3
			C729.3,437.2,737.5,429.1,746.6,429.1z"/>
		<path class="st0" d="M585.5,429.1c9.5,0,17.2,7.8,17.2,17.4c0,9.5-7.8,17.2-17.5,17.1c-9.2-0.1-17.2-8.2-17.1-17.4
			C568.1,437.1,576.4,429,585.5,429.1z"/>
		<path d="M900.8,406.8c-1.4,0.6-1.6-0.4-2-1.2c-0.5-0.9-0.5-2.4-2.3-1.8c0,1,0,2,0,3c-0.2,0.1-0.3,0.2-0.4,0.2
			c-0.2-0.3-0.7-0.6-0.7-1c-0.1-2.3,0-4.6,0-7.1c1.3,0,2.5-0.1,3.7,0c1.7,0.2,2.7,2.5,1.5,3.7c-1.1,1.1-0.7,1.8-0.2,2.8
			C900.5,405.8,900.7,406.3,900.8,406.8z M896.5,399.6c0,1.2,0,2,0,3.1c1-0.2,1.9-0.2,2.7-0.6c0.2-0.1,0.3-1.5,0-1.6
			C898.5,400,897.6,399.9,896.5,399.6z"/>
		<path class="st0" d="M896.5,399.6c1,0.3,2,0.4,2.8,0.9c0.2,0.1,0.2,1.5,0,1.6c-0.8,0.4-1.7,0.4-2.7,0.6
			C896.5,401.6,896.5,400.8,896.5,399.6z"/>
	</g>
</g>
</svg>
