<?xml version="1.0" encoding="utf-8"?>
<!-- Generator: Adobe Illustrator 25.4.1, SVG Export Plug-In . SVG Version: 6.00 Build 0)  -->
<svg version="1.1" id="Layer_1" xmlns="http://www.w3.org/2000/svg" xmlns:xlink="http://www.w3.org/1999/xlink" x="0px" y="0px"
	 viewBox="0 0 567 839" style="enable-background:new 0 0 567 839;" xml:space="preserve">
<style type="text/css">
	.st0{fill:none;}
	.st1{fill:#FFFFFF;}
</style>
<path class="st0" d="M368,815h24v24h-24V815z"/>
<g>
	<path class="st1" d="M-131.5,417.2c4.7,0,8.8-2.8,10.9-7l22.4-43.8c2.3-4.5-0.7-10-5.4-10h-92.6l-5.9-13.5h-20.5v13.5h12.5
		l22.5,51.3l-8.4,16.5c-4.6,9.1,1.4,20.1,10.9,20.1h75.1v-13.5H-185l6.9-13.5H-131.5z M-190.3,369.9h76l-17.3,33.8h-43.9
		L-190.3,369.9z M-185,451c-6.9,0-12.4,6.1-12.4,13.5c0,7.4,5.6,13.5,12.4,13.5s12.5-6.1,12.5-13.5C-172.5,457.1-178.1,451-185,451z
		 M-122.5,451c-6.9,0-12.4,6.1-12.4,13.5c0,7.4,5.6,13.5,12.4,13.5c6.9,0,12.5-6.1,12.5-13.5C-109.9,457.1-115.6,451-122.5,451z"/>
</g>
</svg>
